<?xml version="1.0" encoding="UTF-8" standalone="no"?>
<svg
   xmlns:dc="http://purl.org/dc/elements/1.1/"
   xmlns:cc="http://creativecommons.org/ns#"
   xmlns:rdf="http://www.w3.org/1999/02/22-rdf-syntax-ns#"
   xmlns:svg="http://www.w3.org/2000/svg"
   xmlns="http://www.w3.org/2000/svg"
   viewBox="0 0 409.91666 266.34387"
   height="266.34387"
   width="409.91666"
   xml:space="preserve"
   id="svg2"
   version="1.1"><metadata
     id="metadata8"><rdf:RDF><cc:Work
         rdf:about=""><dc:format>image/svg+xml</dc:format><dc:type
           rdf:resource="http://purl.org/dc/dcmitype/StillImage" /></cc:Work></rdf:RDF></metadata><defs
     id="defs6" /><g
     transform="matrix(1.3333333,0,0,-1.3333333,-58.919332,325.26266)"
     id="g10"><g
       transform="scale(0.1)"
       id="g12"><path
         id="path14"
         style="fill:#ffffff;fill-opacity:1;fill-rule:nonzero;stroke:none"
         d="M 1666.08,1355.39 V 967.5 c 0,-17.988 13.5,-32.41 32.4,-32.41 17.99,0 32.4,14.422 32.4,32.41 v 184.49 c 0,107.09 42.29,172.79 121.49,172.79 54.89,0 87.29,-46.8 87.29,-128.69 V 967.5 c 0,-18.91 13.49,-32.41 32.4,-32.41 18.01,0 32.4,13.5 32.4,32.41 v 184.49 c 0,107.09 42.31,172.79 121.49,172.79 54.91,0 87.3,-46.8 87.3,-128.69 V 967.5 c 0,-18.91 13.48,-32.41 32.35,-32.41 17.96,0 32.34,13.5 32.34,32.41 v 237.59 c 0,112.48 -55.7,184.5 -142.98,184.5 -65.69,0 -115.2,-28.81 -147.61,-87.31 -24.29,58.5 -65.68,87.31 -125.07,87.31 -56.7,0 -100.81,-23.4 -131.4,-71.1 v 36.9 c 0,17.99 -14.41,32.4 -32.4,32.4 -18.9,0 -32.4,-14.41 -32.4,-32.4" /><path
         id="path16"
         style="fill:#ffffff;fill-opacity:1;fill-rule:nonzero;stroke:none"
         d="m 2513.65,1385.97 c -17.11,0 -32.38,-14.39 -32.38,-32.38 V 967.5 c 0,-17.988 15.27,-32.41 32.38,-32.41 18.01,0 32.39,14.422 32.39,32.41 v 386.09 c 0,17.99 -14.38,32.38 -32.39,32.38" /><path
         id="path18"
         style="fill:#ffffff;fill-opacity:1;fill-rule:nonzero;stroke:none"
         d="m 2553.26,1486.68 c 0,23.43 -16.05,39.53 -39.49,39.53 -34.84,2.67 -51.6,-44.9 -28.16,-67.68 22.77,-23.44 70.35,-6.7 67.65,28.15" /><path
         id="path20"
         style="fill:#ffffff;fill-opacity:1;fill-rule:nonzero;stroke:none"
         d="m 2796.23,1385.97 c -17.11,0 -32.38,-14.39 -32.38,-32.38 V 967.5 c 0,-17.988 15.27,-32.41 32.38,-32.41 18.01,0 32.38,14.422 32.38,32.41 v 386.09 c 0,17.99 -14.37,32.38 -32.38,32.38" /><path
         id="path22"
         style="fill:#ffffff;fill-opacity:1;fill-rule:nonzero;stroke:none"
         d="m 2796.35,1526.21 c -34.85,2.67 -51.6,-44.9 -28.17,-67.68 22.78,-23.44 70.36,-6.7 67.66,28.15 0,23.43 -16.05,39.53 -39.49,39.53" /><path
         id="path24"
         style="fill:#ffffff;fill-opacity:1;fill-rule:nonzero;stroke:none"
         d="m 767.676,2374.68 c 67.5,0 125.097,-20.7 173.703,-63 6.297,-5.39 13.492,-8.11 21.59,-8.11 17.097,0 32.402,14.41 32.402,32.4 0,9.91 -4.504,18.91 -12.598,25.2 -59.394,52.21 -131.394,78.3 -215.996,78.3 -91.797,0 -169.187,-30.59 -231.289,-92.7 -62.097,-62.09 -93.593,-138.59 -93.593,-231.29 0,-92.69 30.593,-169.19 92.695,-231.28 62.098,-62.09 138.594,-92.7 231.289,-92.7 83.699,0 156.594,26.09 216.894,78.3 8.094,6.29 11.7,14.4 11.7,25.2 0,18 -14.407,32.4 -31.504,32.4 -8.098,0 -15.293,-2.7 -21.59,-8.11 -49.504,-42.3 -108,-62.98 -174.602,-62.98 -74.699,0 -135.886,24.29 -185.39,72.89 -49.492,49.49 -73.797,110.7 -73.797,185.39 0,74.68 24.305,135.89 72.898,185.39 49.5,49.49 111.59,74.7 187.188,74.7" /><path
         id="path26"
         style="fill:#ffffff;fill-opacity:1;fill-rule:nonzero;stroke:none"
         d="m 1401.28,2336.87 117.89,-289.78 h -235.79 z m -254.7,-539.06 c 17.1,-7.21 36.01,0.9 44.1,19.78 l 66.61,165.61 h 287.08 l 67.5,-165.61 c 8.1,-18.88 27,-26.99 44.1,-19.78 15.3,7.19 24.29,23.4 17.1,40.49 l -234,567.87 c -8.09,19.8 -19.79,29.71 -35.99,29.71 h -2.71 c -16.19,0 -28.8,-9.91 -36.89,-28.81 L 1130.39,1838.3 c -7.21,-18.91 -1.81,-32.4 16.19,-40.49" /><path
         id="path28"
         style="fill:#ffffff;fill-opacity:1;fill-rule:nonzero;stroke:none"
         d="m 1913.38,2366.58 h 153.89 c 76.5,0 121.49,-39.61 121.49,-110.7 0,-71.1 -44.99,-110.69 -121.49,-110.69 h -153.89 z m 0,-539.08 v 253.79 h 120.58 l 182.7,-270.88 c 24.3,-36.92 80.1,-2.72 53.1,36.89 l -160.19,236.68 c 89.99,15.31 143.99,78.3 143.99,171.9 0,107.1 -72,174.58 -186.29,174.58 h -186.29 c -18.9,0 -32.41,-13.49 -32.41,-31.48 V 1827.5 c 0,-42.31 64.81,-42.31 64.81,0" /><path
         id="path30"
         style="fill:#ffffff;fill-opacity:1;fill-rule:nonzero;stroke:none"
         d="m 2546.07,2366.58 h 153.89 c 76.5,0 121.5,-39.61 121.5,-110.7 0,-71.1 -45,-110.69 -121.5,-110.69 h -153.89 z m 0,-539.08 v 253.79 h 120.59 l 182.7,-270.88 c 24.29,-36.92 80.09,-2.72 53.1,36.89 l -160.19,236.68 c 90,15.31 144,78.3 144,171.9 0,107.1 -72.01,174.58 -186.31,174.58 h -186.29 c -18.88,0 -32.4,-13.49 -32.4,-31.48 V 1827.5 c 0,-42.31 64.8,-42.31 64.8,0" /><path
         id="path32"
         style="fill:#ffffff;fill-opacity:1;fill-rule:nonzero;stroke:none"
         d="m 3516,2406.25 c -1.33,16.67 -14.2,29.63 -31.25,29.63 -0.16,0 -0.3,-0.04 -0.45,-0.04 -0.16,0 -0.28,0.04 -0.43,0.04 -10.08,0 -18.99,-4.71 -24.92,-11.94 -4.63,-5.57 -7.49,-12.64 -7.49,-20.47 v -118.79 c 0,-90 -55.8,-144 -155.7,-144 -99.9,0 -156.6,54 -156.6,144 v 118.79 c 0,18.01 -13.5,32.41 -31.48,32.41 -18.91,0 -33.3,-14.4 -33.3,-32.41 v -118.79 c 0,-126.89 80.99,-207.89 216.89,-207.89 75.59,0 128.69,22.5 160.19,66.6 v -143.1 -379.49 c 0,-614.32 -535.41,-1114.101 -1193.53,-1114.101 -658.12,0 -1193.53,499.781 -1193.53,1114.101 0,17.89 -14.51,32.4 -32.4,32.4 -17.89,0 -32.398,-14.51 -32.398,-32.4 0,-650.05 564.478,-1178.909 1258.328,-1178.909 693.85,0 1258.34,528.859 1258.34,1178.909 v 782.67 c 0,0.95 -0.2,1.85 -0.27,2.78" /></g></g></svg>